<svg xmlns="http://www.w3.org/2000/svg" width="153" height="27.046" viewBox="0 0 153 27.046"><g transform="translate(-180.293 -354.694)"><path d="M-6137.159,95.24h-26.047V69.194h26.047V95.239Zm-12.891-17.718c3.246,0,3.6,2.673,3.6,3.822V92.62h4.947V81.344a9.123,9.123,0,0,0-2.066-6.163,7.059,7.059,0,0,0-5.465-2.341,6.37,6.37,0,0,0-4.982,2.36V73.327h-4.721V92.62h4.945V81.344A3.661,3.661,0,0,1-6150.05,77.522Z" transform="translate(6344 286)" fill="#18216d" stroke="rgba(0,0,0,0)" stroke-miterlimit="10" stroke-width="1"/><path d="M280.48,381.307h-9.628v-26h9.628c7.231,0,11.726,4.982,11.726,13C292.206,376.25,287.6,381.307,280.48,381.307Zm0-21.391H275.8V376.7h4.683c5.882,0,6.781-5.281,6.781-8.428C287.261,364.449,286.063,359.916,280.48,359.916Z" transform="translate(-60.328 -0.076)" fill="#18216d"/><path d="M351.242,379.087c-1.986-.224-3.635,0-4.758,1.2a5.836,5.836,0,0,0-1.237,4.2v9.477H340.3V374.666h4.721v1.911a6.457,6.457,0,0,1,6.219-2.285Z" transform="translate(-106.851 -12.729)" fill="#18216d"/><path d="M378.12,386.21a4.909,4.909,0,0,0,4.833,3.821,4.485,4.485,0,0,0,4.084-2.248h5.282c-1.123,3.934-4.533,6.593-9.328,6.593a10.118,10.118,0,0,1,0-20.231c5.694,0,10.415,4.421,9.7,12.064Zm9.666-4.046a4.836,4.836,0,0,0-4.833-3.672,4.937,4.937,0,0,0-4.758,3.672Z" transform="translate(-128.821 -12.695)" fill="#18216d"/><path d="M450.171,392.129a7.8,7.8,0,0,1-5.92,2.171c-4.084,0-7.83-2.059-7.83-6.254,0-4.346,3.634-5.47,7.906-5.844,3.222-.3,5.507-.675,5.507-2.249,0-1.011-1.312-1.835-3.522-1.835-1.762,0-3.783.787-4.233,2.435h-4.946c.486-3.671,4.009-6.407,9.066-6.407,7.83,0,8.431,5.058,8.431,6.594v10.04a11.7,11.7,0,0,0,.562,3.147h-4.535A6.962,6.962,0,0,1,450.171,392.129Zm-.15-7.493a11.4,11.4,0,0,1-4.684,1.237c-2.434.261-3.932.786-3.932,2.21,0,1.086,1.274,1.835,3.259,1.835,2.96,0,5.357-1.012,5.357-3.484Z" transform="translate(-171.239 -12.695)" fill="#18216d"/><path d="M527.781,393.926h-4.945V382.651c0-1.124-.375-3.821-3.6-3.821a3.66,3.66,0,0,0-3.746,3.821v11.276H510.51V382.651c0-1.124-.337-3.821-3.6-3.821a3.653,3.653,0,0,0-3.709,3.821v11.276h-4.982V374.633h4.757v1.874a6.259,6.259,0,0,1,4.984-2.361,7.146,7.146,0,0,1,5.769,2.735,7.425,7.425,0,0,1,5.883-2.735c5.17,0,8.167,3.446,8.167,8.5Z" transform="translate(-212.639 -12.695)" fill="#18216d"/><path d="M600.3,394.377c-4.785,0-8.007-2.467-8.592-6.626h4.918a4,4,0,0,0,3.861,2.317c1.935,0,3.21-.787,3.21-1.91,0-1.087-.657-1.248-3.945-1.773-3.362-.524-7.857-1.749-7.857-6.058,0-3.034,2.6-6.181,8.039-6.181,4.31,0,7.607,2.584,8.147,6.407h-5.005a3.4,3.4,0,0,0-3.328-2.173c-2.229,0-2.955,1.011-2.955,1.723,0,1.012,1.388,1.637,3.726,2.012,4.675.786,8.037,1.548,8.037,5.742C608.558,391.679,605.123,394.377,600.3,394.377Z" transform="translate(-275.264 -12.695)" fill="#18216d"/><g transform="translate(329.861 355.199)"><path d="M634.065,355.21a1.716,1.716,0,1,0,1.716,1.716A1.716,1.716,0,0,0,634.065,355.21Zm0,3.094a1.378,1.378,0,1,1,1.377-1.378A1.378,1.378,0,0,1,634.065,358.3Z" transform="translate(-632.349 -355.21)" fill="#18216d"/><g transform="translate(1.043 0.902)"><path d="M636.405,357.941a.516.516,0,0,1,.2.037.469.469,0,0,1,.156.1.418.418,0,0,1,.1.146.46.46,0,0,1,.035.179.5.5,0,0,1-.062.254.391.391,0,0,1-.2.164v0a.285.285,0,0,1,.111.058.3.3,0,0,1,.073.091.406.406,0,0,1,.04.116,1.013,1.013,0,0,1,.019.125c0,.027,0,.057,0,.093s0,.073.008.11a.91.91,0,0,0,.019.107.223.223,0,0,0,.038.084h-.367a.661.661,0,0,1-.037-.189c0-.073-.012-.143-.02-.21a.343.343,0,0,0-.079-.191.273.273,0,0,0-.2-.06h-.366v.651h-.367v-1.667Zm-.13.754a.282.282,0,0,0,.19-.056.235.235,0,0,0,.062-.182.227.227,0,0,0-.062-.177.291.291,0,0,0-.19-.053h-.4v.469Z" transform="translate(-635.507 -357.941)" fill="#18216d"/></g></g></g></svg>